<svg width="31" height="31" viewBox="0 0 31 31" fill="none" xmlns="http://www.w3.org/2000/svg">
<path d="M21.9928 17.7165V21.1132C21.9928 21.9768 22.336 22.8094 22.9494 23.4205C23.5605 24.0339 24.5968 24.3771 25.4626 24.3771H1.10547C1.97125 24.3771 3.00754 24.0339 3.61868 23.4205C3.92219 23.1179 4.16293 22.7582 4.32709 22.3623C4.49124 21.9663 4.57558 21.5419 4.57525 21.1132V13.1396C4.57525 10.8299 5.49278 8.61476 7.126 6.98155C8.75921 5.34833 10.9743 4.4308 13.284 4.4308M11.0698 29.8951H15.4983M23.8019 12.1808C25.2701 12.1808 26.6781 11.5976 27.7162 10.5594C28.7544 9.52128 29.3376 8.11325 29.3376 6.64509C29.3376 5.17693 28.7544 3.7689 27.7162 2.73075C26.6781 1.6926 25.2701 1.10938 23.8019 1.10938C22.3337 1.10938 20.9257 1.6926 19.8876 2.73075C18.8494 3.7689 18.2662 5.17693 18.2662 6.64509C18.2662 8.11325 18.8494 9.52128 19.8876 10.5594C20.9257 11.5976 22.3337 12.1808 23.8019 12.1808Z" stroke="#FF0000" style="stroke:#FF0000;stroke:color(display-p3 1.0000 0.0000 0.0000);stroke-opacity:1;" stroke-linecap="round" stroke-linejoin="round"/>
</svg>
