<svg width="41" height="41" viewBox="0 0 41 41" fill="none" xmlns="http://www.w3.org/2000/svg">
<path opacity="0.3" d="M30.7494 10.25C31.6555 10.25 32.5246 10.61 33.1653 11.2507C33.8061 11.8915 34.166 12.7605 34.166 13.6667V15.375C35.0722 15.375 35.9412 15.735 36.582 16.3757C37.2227 17.0165 37.5827 17.8855 37.5827 18.7917V22.2083C37.5827 23.1145 37.2227 23.9835 36.582 24.6243C35.9412 25.265 35.0722 25.625 34.166 25.625V27.3333C34.166 28.2395 33.8061 29.1085 33.1653 29.7493C32.5246 30.39 31.6555 30.75 30.7494 30.75H22.0352L26.5862 23.1633C28.2706 20.3582 26.9227 16.9279 24.1859 15.7748L24.8949 14.596C25.7115 13.231 25.8225 11.6406 25.3305 10.25H30.7494Z" fill="white" style="fill:white;fill-opacity:1;"/>
<path d="M19.036 11.0793C19.259 10.7032 19.6177 10.4269 20.0382 10.3073C20.4588 10.1877 20.9092 10.234 21.2967 10.4365C21.6842 10.639 21.9793 10.9824 22.1213 11.3959C22.2632 11.8095 22.2412 12.2617 22.0597 12.6595L21.9658 12.8372L18.3971 18.7907H22.181C23.4554 18.7907 24.2669 20.1113 23.7527 21.2285L23.6604 21.4045L18.5525 29.9205C18.3304 30.2987 17.9713 30.5769 17.5497 30.6977C17.1281 30.8184 16.6762 30.7723 16.2876 30.569C15.899 30.3657 15.6034 30.0207 15.4622 29.6055C15.3209 29.1903 15.3448 28.7367 15.5288 28.3386L15.6227 28.161L19.1914 22.2074H15.4092C15.1206 22.2074 14.8367 22.1351 14.5833 21.997C14.3299 21.8589 14.1152 21.6595 13.9589 21.4169C13.8025 21.1744 13.7095 20.8965 13.6883 20.6087C13.6671 20.3209 13.7184 20.0324 13.8375 19.7696L13.9298 19.5937L19.036 11.0793Z" fill="white" style="fill:white;fill-opacity:1;"/>
<path opacity="0.3" d="M15.5488 10.25L10.9978 17.8367C9.3698 20.5478 10.5759 23.8432 13.1281 25.1023L13.3981 25.2253L12.6908 26.404C12.3315 27.0021 12.0982 27.6673 12.0051 28.3588C11.912 29.0503 11.961 29.7535 12.1493 30.4254L12.2518 30.75H6.83464C5.97265 30.7503 5.14242 30.4247 4.51037 29.8386C3.87831 29.2525 3.49116 28.4491 3.42651 27.5896L3.41797 27.3333V13.6667C3.41813 12.805 3.74387 11.9752 4.32994 11.3435C4.91601 10.7118 5.71912 10.3249 6.57839 10.2603L6.83464 10.25H15.5488Z" fill="white" style="fill:white;fill-opacity:1;"/>
</svg>
